<svg version="1.1" id="Layer_1" xmlns="http://www.w3.org/2000/svg" xmlns:xlink="http://www.w3.org/1999/xlink" x="0px" y="0px"
	 width="100%" viewBox="0 0 433 500" enable-background="new 0 0 433 500" xml:space="preserve">
<path fill="#FFFFFF" opacity="1.000000" stroke="none" 
	d="
M216.000000,501.000000 
	C144.349930,501.000000 72.699867,501.000000 1.024899,501.000000 
	C1.024899,334.388550 1.024899,167.777069 1.024899,1.082806 
	C145.244659,1.082806 289.489380,1.082806 433.867065,1.082806 
	C433.867065,167.666595 433.867065,334.333282 433.874451,501.000000 
	C362.231903,501.000000 290.582001,501.000000 218.538605,500.660095 
	C218.838791,499.862152 219.510605,499.366302 220.229187,498.951416 
	C289.519287,458.949799 358.814972,418.957825 428.091797,378.933258 
	C429.452972,378.146820 430.596375,376.983429 431.910217,375.530029 
	C431.986572,294.622345 431.958160,214.180420 432.105927,133.738815 
	C432.113434,129.645493 430.703552,127.701675 427.277618,125.732941 
	C369.465698,92.510780 311.756531,59.109936 253.989105,25.810251 
	C241.774429,18.769188 229.418762,11.972764 216.763641,5.026729 
	C215.801727,5.279067 215.183075,5.531682 214.609695,5.862715 
	C144.983536,46.060936 75.374001,86.288101 5.691840,126.389015 
	C2.724126,128.096893 2.081663,130.039673 2.084501,133.155869 
	C2.156881,212.643066 2.140064,292.130341 2.153393,371.617615 
	C2.153643,373.108551 2.329892,374.599518 2.491156,376.398346 
	C3.659228,377.442047 4.722217,378.243622 5.866506,378.904327 
	C74.660629,418.627563 143.463425,458.335754 212.247360,498.076630 
	C213.607300,498.862335 214.753891,500.017303 216.000000,501.000000 
z"/>
<path fill="#6375A7" opacity="1.000000" stroke="none" 
	d="
M431.841400,375.995911 
	C430.596375,376.983429 429.452972,378.146820 428.091797,378.933258 
	C358.814972,418.957825 289.519287,458.949799 220.229187,498.951416 
	C219.510605,499.366302 218.838791,499.862152 218.072571,500.660095 
	C217.555557,501.000000 217.111099,501.000000 216.333328,501.000000 
	C214.753891,500.017303 213.607300,498.862335 212.247360,498.076630 
	C143.463425,458.335754 74.660629,418.627563 5.866506,378.904327 
	C4.722217,378.243622 3.659228,377.442047 2.808327,376.307312 
	C8.277919,373.081787 13.497472,370.255127 19.078564,367.620605 
	C30.968199,374.453461 42.464088,381.150879 54.034023,387.717834 
	C64.270332,393.527832 74.589058,399.192566 85.218018,404.842682 
	C98.912392,397.150024 112.234261,389.490295 125.617393,381.939117 
	C133.936096,377.245422 142.347565,372.716156 150.770752,368.571289 
	C150.835052,392.299347 150.937546,415.569855 150.762711,438.838287 
	C150.735077,442.517395 151.951263,444.401733 155.095886,446.166748 
	C169.573929,454.292786 183.864075,462.752686 198.285034,470.981781 
	C204.447571,474.498322 210.764740,477.743927 217.376221,481.097839 
	C219.511505,480.173676 221.324265,479.337219 223.046402,478.343689 
	C241.481964,467.708130 259.837219,456.930450 278.386261,446.497040 
	C281.923889,444.507202 283.207794,442.422974 283.183929,438.381104 
	C283.045349,414.910126 283.209473,391.437317 283.604523,368.021362 
	C292.881531,373.125031 301.825043,378.172791 310.768982,383.219818 
	C323.603607,390.462341 336.438477,397.704285 349.610352,404.901184 
	C371.910339,392.196625 393.873230,379.537323 416.053162,367.155029 
	C421.460571,370.286682 426.651001,373.141296 431.841400,375.995911 
z"/>
<path fill="#8DC542" opacity="1.000000" stroke="none" 
	d="
M18.717022,367.428467 
	C13.497472,370.255127 8.277919,373.081787 2.741195,375.999451 
	C2.329892,374.599518 2.153643,373.108551 2.153393,371.617615 
	C2.140064,292.130341 2.156881,212.643066 2.084501,133.155869 
	C2.081663,130.039673 2.724126,128.096893 5.691840,126.389015 
	C75.374001,86.288101 144.983536,46.060936 214.609695,5.862715 
	C215.183075,5.531682 215.801727,5.279067 216.742889,5.490609 
	C217.042236,11.927438 216.997925,17.863499 216.608917,23.897833 
	C209.642136,27.768183 202.983200,31.477224 196.405457,35.325054 
	C181.265793,44.181393 166.165619,53.105232 150.763641,62.187355 
	C139.635406,81.023987 128.792938,99.674957 117.588257,118.247116 
	C107.827812,112.877769 98.297310,107.803474 89.103020,102.179512 
	C85.880402,100.208298 83.612434,100.338387 80.572487,102.132263 
	C66.840889,110.235298 52.968987,118.100266 39.220039,126.174301 
	C32.377541,130.192535 25.690947,134.476257 18.813530,139.119400 
	C18.671890,157.918335 18.627766,176.237732 18.633429,194.557144 
	C18.651237,252.180923 18.687748,309.804688 18.717022,367.428467 
z"/>
<path fill="#59595B" opacity="1.000000" stroke="none" 
	d="
M216.953613,23.799561 
	C216.997925,17.863499 217.042236,11.927438 217.107300,5.527497 
	C229.418762,11.972764 241.774429,18.769188 253.989105,25.810251 
	C311.756531,59.109936 369.465698,92.510780 427.277618,125.732941 
	C430.703552,127.701675 432.113434,129.645493 432.105927,133.738815 
	C431.958160,214.180420 431.986572,294.622345 431.910217,375.530060 
	C426.651001,373.141296 421.460571,370.286682 416.054565,366.696777 
	C415.839294,292.335083 415.846619,218.708603 415.804260,145.082138 
	C415.803040,142.987152 415.272583,140.892471 414.923218,138.476868 
	C414.544556,137.785629 414.303467,137.290482 413.908264,137.062622 
	C395.674194,126.549767 377.003235,116.713539 359.367188,105.280518 
	C351.086029,99.912048 345.363556,101.372864 338.156342,106.053406 
	C331.132996,110.614517 323.427887,114.125916 315.777710,117.854477 
	C304.694214,99.040619 293.855103,80.470490 282.803497,61.640366 
	C272.263611,55.372402 261.969727,49.305801 251.599823,43.372150 
	C240.087296,36.784687 228.505341,30.318533 216.953613,23.799561 
z"/>
<path fill="#8CC440" opacity="1.000000" stroke="none" 
	d="
M414.988892,138.797638 
	C415.272583,140.892471 415.803040,142.987152 415.804260,145.082138 
	C415.846619,218.708603 415.839294,292.335083 415.837524,366.419800 
	C393.873230,379.537323 371.910339,392.196625 349.568298,404.437927 
	C349.189148,364.891022 349.189148,325.762115 349.189148,286.633209 
	C348.751129,286.574127 348.313080,286.515076 347.875061,286.455994 
	C337.333435,304.648438 326.791809,322.840851 316.162842,341.183960 
	C304.980560,334.828674 294.384277,328.806427 283.271240,322.490509 
	C283.271240,338.359467 283.271240,353.162323 283.271240,367.965149 
	C283.209473,391.437317 283.045349,414.910126 283.183929,438.381104 
	C283.207794,442.422974 281.923889,444.507202 278.386261,446.497040 
	C259.837219,456.930450 241.481964,467.708130 223.046402,478.343689 
	C221.324265,479.337219 219.511505,480.173676 217.373108,480.617798 
	C216.989517,404.272369 216.973633,328.392212 217.303436,252.367249 
	C239.426666,239.753738 261.204193,227.285034 283.327911,214.910217 
	C293.153534,220.475464 302.692780,225.847137 312.078339,231.475128 
	C315.147736,233.315674 316.981903,233.371216 318.666138,229.819458 
	C320.508911,225.933411 322.871796,222.293869 325.010864,218.548538 
	C333.068207,204.440735 341.126678,190.333603 349.523010,176.130737 
	C351.020752,175.396271 352.189545,174.773651 353.338196,174.115829 
	C373.889862,162.345642 394.439117,150.571182 414.988892,138.797638 
z"/>
<path fill="#FEFFFE" opacity="1.000000" stroke="none" 
	d="
M216.957748,252.512054 
	C216.973633,328.392212 216.989517,404.272369 217.008514,480.632568 
	C210.764740,477.743927 204.447571,474.498322 198.285034,470.981781 
	C183.864075,462.752686 169.573929,454.292786 155.095886,446.166748 
	C151.951263,444.401733 150.735077,442.517395 150.762711,438.838287 
	C150.937546,415.569855 150.835052,392.299347 150.868958,368.103516 
	C150.913834,352.586212 150.913834,337.994843 150.913834,322.382874 
	C139.412521,328.933289 128.707565,335.030182 117.903557,341.183502 
	C106.950294,322.264893 96.349541,303.955170 85.748779,285.645416 
	C85.456322,285.771240 85.163857,285.897034 84.871399,286.022858 
	C84.871399,325.655701 84.871399,365.288574 84.871399,404.921448 
	C74.589058,399.192566 64.270332,393.527832 54.034023,387.717834 
	C42.464088,381.150879 30.968199,374.453461 19.078560,367.620605 
	C18.687748,309.804688 18.651237,252.180923 18.633429,194.557144 
	C18.627766,176.237732 18.671890,157.918335 19.160812,139.252930 
	C41.338684,151.370514 63.048981,163.834091 84.867065,176.619171 
	C95.845451,195.700195 106.716049,214.459732 117.793976,233.577103 
	C129.234848,227.137024 140.175262,220.978668 151.429260,214.970123 
	C173.481140,227.584000 195.219437,240.048035 216.957748,252.512054 
z"/>
<path fill="#A7A9AC" opacity="1.000000" stroke="none" 
	d="
M85.218018,404.842682 
	C84.871399,365.288574 84.871399,325.655701 84.871399,286.022858 
	C85.163857,285.897034 85.456322,285.771240 85.748779,285.645416 
	C96.349541,303.955170 106.950294,322.264893 117.903557,341.183502 
	C128.707565,335.030182 139.412521,328.933289 150.913834,322.382874 
	C150.913834,337.994843 150.913834,352.586212 150.815613,367.645325 
	C142.347565,372.716156 133.936096,377.245422 125.617393,381.939117 
	C112.234261,389.490295 98.912392,397.150024 85.218018,404.842682 
z"/>
<path fill="#58585A" opacity="1.000000" stroke="none" 
	d="
M283.604523,368.021362 
	C283.271240,353.162323 283.271240,338.359467 283.271240,322.490509 
	C294.384277,328.806427 304.980560,334.828674 316.162842,341.183960 
	C326.791809,322.840851 337.333435,304.648438 347.875061,286.455994 
	C348.313080,286.515076 348.751129,286.574127 349.189148,286.633209 
	C349.189148,325.762115 349.189148,364.891022 349.231201,404.483215 
	C336.438477,397.704285 323.603607,390.462341 310.768982,383.219818 
	C301.825043,378.172791 292.881531,373.125031 283.604523,368.021362 
z"/>
<path fill="#58585A" opacity="1.000000" stroke="none" 
	d="
M117.950470,118.325920 
	C128.792938,99.674957 139.635406,81.023987 151.061920,62.345764 
	C168.132187,71.887634 184.583557,81.517586 201.125290,90.989792 
	C206.262375,93.931404 211.644455,96.445198 216.940735,99.607109 
	C216.900253,125.367050 216.833405,150.674728 216.637177,175.954865 
	C216.507797,175.927292 216.239716,175.931976 215.990494,175.684784 
	C198.609711,165.516968 181.510300,155.540176 164.325104,145.713348 
	C159.748260,143.096222 154.908600,140.938736 150.094574,138.249741 
	C148.690643,136.968216 147.448669,135.895569 146.062012,135.064178 
	C136.708633,129.456177 127.324585,123.899330 117.950470,118.325920 
z"/>
<path fill="#6274A7" opacity="1.000000" stroke="none" 
	d="
M117.588257,118.247116 
	C127.324585,123.899330 136.708633,129.456177 146.062012,135.064178 
	C147.448669,135.895569 148.690643,136.968216 149.792389,138.485901 
	C127.976578,151.460922 106.367928,163.879303 84.759270,176.297684 
	C63.048981,163.834091 41.338684,151.370514 19.281109,138.773407 
	C25.690947,134.476257 32.377541,130.192535 39.220039,126.174301 
	C52.968987,118.100266 66.840889,110.235298 80.572487,102.132263 
	C83.612434,100.338387 85.880402,100.208298 89.103020,102.179512 
	C98.297310,107.803474 107.827812,112.877769 117.588257,118.247116 
z"/>
<path fill="#6274A6" opacity="1.000000" stroke="none" 
	d="
M216.914368,99.154846 
	C211.644455,96.445198 206.262375,93.931404 201.125290,90.989792 
	C184.583557,81.517586 168.132187,71.887634 151.347687,62.160095 
	C166.165619,53.105232 181.265793,44.181393 196.405457,35.325054 
	C202.983200,31.477224 209.642136,27.768183 216.608917,23.897835 
	C228.505341,30.318533 240.087296,36.784687 251.599823,43.372150 
	C261.969727,49.305801 272.263611,55.372402 282.455750,61.718449 
	C268.666840,69.967339 255.052597,77.947258 241.344604,85.762703 
	C233.278122,90.361702 225.062759,94.699547 216.914368,99.154846 
z"/>
<path fill="#A7A9AC" opacity="1.000000" stroke="none" 
	d="
M216.940735,99.607101 
	C225.062759,94.699547 233.278122,90.361702 241.344604,85.762703 
	C255.052597,77.947258 268.666840,69.967339 282.668243,61.978447 
	C293.855103,80.470490 304.694214,99.040619 315.709503,118.184746 
	C315.162292,119.390808 314.516846,120.155060 313.703613,120.634880 
	C303.454193,126.681931 293.180603,132.687973 282.575195,138.828705 
	C260.830627,151.324875 239.424057,163.696823 217.704834,176.045975 
	C217.183655,176.009583 216.975098,175.996002 216.766556,175.982422 
	C216.833405,150.674728 216.900253,125.367050 216.940735,99.607101 
z"/>
<path fill="#6274A6" opacity="1.000000" stroke="none" 
	d="
M282.913177,138.704483 
	C293.180603,132.687973 303.454193,126.681931 313.703613,120.634880 
	C314.516846,120.155060 315.162292,119.390808 315.953918,118.428467 
	C323.427887,114.125916 331.132996,110.614517 338.156342,106.053406 
	C345.363556,101.372864 351.086029,99.912048 359.367188,105.280518 
	C377.003235,116.713539 395.674194,126.549767 413.908264,137.062622 
	C414.303467,137.290482 414.544556,137.785629 414.923218,138.476868 
	C394.439117,150.571182 373.889862,162.345642 353.338196,174.115829 
	C352.189545,174.773651 351.020752,175.396271 349.163757,176.021271 
	C338.865997,170.468857 329.293793,164.881195 319.658539,159.404343 
	C307.436859,152.457321 295.163971,145.600311 282.913177,138.704483 
z"/>
<path fill="#58585A" opacity="1.000000" stroke="none" 
	d="
M282.575195,138.828705 
	C295.163971,145.600311 307.436859,152.457321 319.658539,159.404343 
	C329.293793,164.881195 338.865997,170.468857 348.825470,176.116760 
	C341.126678,190.333603 333.068207,204.440735 325.010864,218.548538 
	C322.871796,222.293869 320.508911,225.933411 318.666138,229.819458 
	C316.981903,233.371216 315.147736,233.315674 312.078339,231.475128 
	C302.692780,225.847137 293.153534,220.475464 283.160400,214.628723 
	C273.353546,208.800186 264.045898,203.371353 254.770645,197.887863 
	C242.506348,190.637238 230.267349,183.343796 218.017487,176.068771 
	C239.424057,163.696823 260.830627,151.324875 282.575195,138.828705 
z"/>
<path fill="#6274A7" opacity="1.000000" stroke="none" 
	d="
M217.704834,176.045975 
	C230.267349,183.343796 242.506348,190.637238 254.770645,197.887863 
	C264.045898,203.371353 273.353546,208.800186 282.814270,214.534836 
	C261.204193,227.285034 239.426666,239.753738 217.303436,252.367249 
	C195.219437,240.048035 173.481140,227.584000 151.582794,214.681839 
	C165.273270,206.163162 179.148453,198.124466 192.964691,189.985748 
	C200.773056,185.386078 208.484573,180.621994 216.239716,175.931976 
	C216.239716,175.931976 216.507797,175.927292 216.637177,175.954865 
	C216.975098,175.996002 217.183655,176.009583 217.704834,176.045975 
z"/>
<path fill="#A7A9AC" opacity="1.000000" stroke="none" 
	d="
M215.990479,175.684769 
	C208.484573,180.621994 200.773056,185.386078 192.964691,189.985748 
	C179.148453,198.124466 165.273270,206.163162 151.269226,214.532013 
	C140.175262,220.978668 129.234848,227.137024 117.793976,233.577103 
	C106.716049,214.459732 95.845451,195.700195 84.867065,176.619171 
	C106.367928,163.879303 127.976578,151.460922 149.887421,138.806381 
	C154.908600,140.938736 159.748260,143.096222 164.325104,145.713348 
	C181.510300,155.540176 198.609711,165.516968 215.990479,175.684769 
z"/>
</svg>